<?xml version="1.0" encoding="utf-8"?>
<!-- Generator: Adobe Illustrator 16.0.3, SVG Export Plug-In . SVG Version: 6.00 Build 0)  -->
<!DOCTYPE svg PUBLIC "-//W3C//DTD SVG 1.1//EN" "http://www.w3.org/Graphics/SVG/1.1/DTD/svg11.dtd">
<svg version="1.1" id="dices" xmlns="http://www.w3.org/2000/svg" xmlns:xlink="http://www.w3.org/1999/xlink" x="0px" y="0px"
	 width="64px" height="64px" viewBox="0 0 64 64" enable-background="new 0 0 64 64" xml:space="preserve">
<path id="d100" d="M32.191,33.989c0.245,0.463,0.367,1.164,0.367,2.102v3.227c-0.006,0.939-0.133,1.627-0.378,2.066
	c-0.245,0.44-0.623,0.66-1.138,0.66c-0.531,0-0.921-0.226-1.165-0.677c-0.245-0.451-0.367-1.165-0.367-2.138v-3.336
	c0.018-0.872,0.144-1.524,0.381-1.954c0.235-0.431,0.614-0.646,1.133-0.646C31.558,33.293,31.944,33.525,32.191,33.989z
	 M41.31,42.044c0.513,0,0.891-0.22,1.136-0.66c0.246-0.438,0.373-1.127,0.378-2.066v-3.227c0-0.938-0.121-1.639-0.366-2.102
	c-0.246-0.464-0.635-0.695-1.168-0.695c-0.519,0-0.896,0.215-1.134,0.646c-0.233,0.43-0.362,1.082-0.38,1.954v3.336
	c0,0.973,0.122,1.687,0.367,2.138S40.777,42.044,41.31,42.044z M29.058,54.334l-15.66-9.682c-1.185-0.731-3.271-1.559-4.637-1.84
	l-5.225-1.07c-1.366-0.279-1.571,0.176-0.458,1.014l26.111,19.646c1.111,0.84,2.021,0.385,2.021-1.008v-3.195
	C31.211,56.807,30.243,55.066,29.058,54.334z M8.479,41.09c1.368,0.267,2.969-0.545,3.563-1.807l17.476-37.19
	c0.592-1.261,0.169-1.604-0.941-0.762L2.874,20.814c-1.11,0.842-2.018,2.669-2.018,4.062v12.192c0,1.393,1.118,2.75,2.484,3.018
	L8.479,41.09z M60.664,41.742l-5.226,1.07c-1.365,0.281-3.45,1.108-4.635,1.84l-15.662,9.682c-1.185,0.732-2.152,2.473-2.152,3.865
	v3.195c0,1.393,0.909,1.848,2.024,1.008l26.107-19.646C62.235,41.918,62.029,41.463,60.664,41.742z M61.127,20.814L35.426,1.331
	c-1.109-0.841-1.532-0.499-0.94,0.762l17.476,37.19c0.592,1.262,2.194,2.073,3.562,1.807l5.138-1.004
	c1.367-0.268,2.485-1.625,2.485-3.018V24.876C63.146,23.483,62.238,21.656,61.127,20.814z M34.239,52.891
	c-1.188,0.729-3.132,0.729-4.317,0l-15.107-9.25c-1.187-0.727-1.681-2.356-1.095-3.621L31.016,2.686
	c0.587-1.264,1.544-1.264,2.129,0L50.44,40.02c0.586,1.265,0.093,2.895-1.095,3.621L34.239,52.891z M36.746,38.861
	c0,1.75,0.396,3.108,1.191,4.07s1.919,1.444,3.372,1.444c1.438,0,2.555-0.479,3.347-1.436c0.792-0.955,1.188-2.314,1.188-4.079
	v-2.375c0-1.757-0.397-3.117-1.192-4.08c-0.795-0.962-1.916-1.443-3.363-1.443c-1.443,0-2.564,0.479-3.356,1.435
	c-0.791,0.957-1.187,2.315-1.187,4.079V38.861z M24.782,31.142h-0.276l-5.728,1.982v2.295l2.976-0.87v9.646h3.028V31.142z
	 M34.392,42.939c0.792-0.955,1.188-2.314,1.188-4.079v-2.375c0-1.757-0.397-3.117-1.194-4.08c-0.795-0.962-1.914-1.443-3.361-1.443
	c-1.446,0-2.564,0.479-3.356,1.435c-0.792,0.957-1.187,2.315-1.187,4.079v2.385c0,1.75,0.396,3.108,1.19,4.07
	s1.92,1.444,3.371,1.444C32.483,44.375,33.599,43.896,34.392,42.939z"/>
</svg>
