<?xml version="1.0" encoding="utf-8"?>
<!-- Generator: Adobe Illustrator 16.0.3, SVG Export Plug-In . SVG Version: 6.00 Build 0)  -->
<!DOCTYPE svg PUBLIC "-//W3C//DTD SVG 1.1//EN" "http://www.w3.org/Graphics/SVG/1.1/DTD/svg11.dtd">
<svg version="1.1" id="dices" xmlns="http://www.w3.org/2000/svg" xmlns:xlink="http://www.w3.org/1999/xlink" x="0px" y="0px"
	 width="64px" height="64px" viewBox="0 0 64 64" enable-background="new 0 0 64 64" xml:space="preserve">
<path id="d20" d="M35.535,36.27c-0.215-0.394-0.321-1.017-0.321-1.869v-2.917c0.015-0.764,0.126-1.333,0.333-1.709
	c0.206-0.376,0.537-0.564,0.992-0.564c0.465,0,0.803,0.203,1.02,0.607c0.214,0.405,0.321,1.018,0.321,1.839v2.822
	c-0.006,0.821-0.116,1.423-0.33,1.808c-0.214,0.384-0.546,0.576-0.994,0.576C36.09,36.863,35.75,36.665,35.535,36.27z
	 M30.669,12.863c0.695-1.206,1.837-1.206,2.532,0l15.334,26.557c0.694,1.208,0.125,2.194-1.267,2.194H16.603
	c-1.392,0-1.964-0.986-1.266-2.194L30.669,12.863z M32.563,34.08c0,1.531,0.348,2.717,1.042,3.559
	c0.695,0.841,1.679,1.263,2.95,1.263c1.257,0,2.233-0.418,2.927-1.254c0.692-0.837,1.038-2.026,1.038-3.567v-2.078
	c0-1.536-0.347-2.725-1.041-3.567c-0.696-0.841-1.676-1.262-2.94-1.262c-1.266,0-2.245,0.418-2.936,1.254
	c-0.694,0.836-1.04,2.025-1.04,3.567V34.08z M30.301,28.019c-0.666-0.569-1.617-0.854-2.851-0.854c-0.768,0-1.464,0.167-2.085,0.501
	c-0.622,0.335-1.108,0.799-1.458,1.392s-0.524,1.24-0.524,1.941h2.648c0-0.513,0.126-0.94,0.378-1.283
	c0.251-0.341,0.576-0.513,0.979-0.513c0.408,0,0.718,0.128,0.934,0.383c0.214,0.256,0.32,0.63,0.32,1.122
	c0,0.606-0.451,1.423-1.355,2.454l-3.67,3.858v1.725h7.966v-2.039h-4.492l1.474-1.702c0.784-0.784,1.352-1.409,1.705-1.877
	s0.613-0.915,0.78-1.341c0.167-0.426,0.25-0.863,0.25-1.313C31.3,29.407,30.968,28.589,30.301,28.019z M7.011,12.496L28.54,8.436
	c1.368-0.257,2.489-1.608,2.492-3.001l0.003-3.289c0.003-1.393-1.014-2.021-2.256-1.394L6.784,11.827
	C5.54,12.453,5.642,12.754,7.011,12.496z M35.462,8.436l21.529,4.061c1.369,0.258,1.471-0.043,0.227-0.669L35.223,0.751
	c-1.243-0.626-2.26,0.001-2.258,1.394l0.006,3.289C32.973,6.827,34.093,8.178,35.462,8.436z M36.121,10.382
	c-1.367-0.26-1.919,0.514-1.222,1.721L50.231,38.66c0.697,1.205,1.643,1.117,2.103-0.198l7.356-21.059
	c0.459-1.315-0.285-2.604-1.653-2.863L36.121,10.382z M56.857,46.563l-2.85-1.641c-1.206-0.695-2.938-0.398-3.846,0.657
	L35.881,62.193c-0.908,1.059-0.698,1.295,0.466,0.531l20.589-13.51C58.1,48.451,58.066,47.258,56.857,46.563z M60.871,19.217
	l-7.248,20.676c-0.461,1.314,0.149,2.961,1.353,3.658l2.847,1.648c1.205,0.699,2.257,0.131,2.338-1.259l1.404-24.585
	C61.645,17.965,61.332,17.902,60.871,19.217z M13.84,45.579c-0.908-1.056-2.639-1.353-3.846-0.657l-2.851,1.641
	c-1.208,0.695-1.242,1.889-0.077,2.652l20.588,13.51c1.164,0.764,1.375,0.527,0.467-0.531L13.84,45.579z M47.269,43.259H16.603
	c-1.392,0-1.789,0.864-0.88,1.919l14.559,16.9c0.91,1.055,2.397,1.055,3.306,0l14.56-16.9C49.056,44.123,48.66,43.259,47.269,43.259
	z M11.735,38.348c0.459,1.315,1.404,1.404,2.1,0.198l15.333-26.556c0.696-1.207,0.147-1.981-1.221-1.722L6.029,14.425
	c-1.369,0.26-2.111,1.548-1.652,2.864L11.735,38.348z M10.379,39.893L3.131,19.217c-0.461-1.315-0.773-1.251-0.693,0.138
	L3.842,43.94c0.08,1.39,1.133,1.957,2.337,1.259l2.847-1.648C10.229,42.854,10.84,41.207,10.379,39.893z"/>
</svg>
