<?xml version="1.0" encoding="utf-8"?>
<!-- Generator: Adobe Illustrator 16.0.3, SVG Export Plug-In . SVG Version: 6.00 Build 0)  -->
<!DOCTYPE svg PUBLIC "-//W3C//DTD SVG 1.1//EN" "http://www.w3.org/Graphics/SVG/1.1/DTD/svg11.dtd">
<svg version="1.1" id="dices" xmlns="http://www.w3.org/2000/svg" xmlns:xlink="http://www.w3.org/1999/xlink" x="0px" y="0px"
	 width="64px" height="64px" viewBox="0 0 64 64" enable-background="new 0 0 64 64" xml:space="preserve">
<path id="d8" d="M30.408,25.128c-0.406-0.54-0.607-1.248-0.607-2.126c0-0.888,0.198-1.582,0.598-2.082
	c0.399-0.5,0.981-0.751,1.748-0.751c0.784,0,1.381,0.253,1.778,0.759c0.399,0.507,0.6,1.198,0.6,2.074
	c0,0.878-0.194,1.586-0.583,2.126c-0.389,0.54-0.969,0.81-1.746,0.81C31.41,25.938,30.813,25.668,30.408,25.128z M55.181,45.753
	H8.844c-1.386,0-1.605,0.672-0.492,1.493l21.635,15.947c1.113,0.823,2.937,0.823,4.05,0l21.635-15.947
	C56.784,46.425,56.564,45.753,55.181,45.753z M32.163,30.323c-0.857,0-1.546,0.274-2.076,0.819
	c-0.528,0.544-0.793,1.324-0.793,2.336c0,0.978,0.267,1.751,0.802,2.32c0.533,0.567,1.234,0.851,2.1,0.851
	c0.844,0,1.523-0.281,2.042-0.843c0.518-0.563,0.775-1.338,0.775-2.328c0-1.012-0.26-1.792-0.785-2.336
	C33.706,30.597,33.017,30.323,32.163,30.323z M28.074,1.404L6.604,17.667c-1.104,0.836-2.006,2.653-2.006,4.037v20.152
	c0,1.384,0.563,1.534,1.25,0.332L28.83,2.068C29.518,0.867,29.178,0.568,28.074,1.404z M57.396,17.671L35.837,1.401
	c-1.104-0.834-1.444-0.534-0.754,0.666l23.066,40.125c0.688,1.201,1.254,1.049,1.254-0.335V21.705
	C59.403,20.32,58.5,18.506,57.396,17.671z M56.438,42.193c0.693,1.199,0.127,2.181-1.257,2.181H8.844
	c-1.386,0-1.951-0.982-1.26-2.181L30.753,2.064c0.691-1.198,1.824-1.198,2.518,0L56.438,42.193z M40.714,33.934
	c0-1.361-0.343-2.539-1.029-3.534c-0.684-0.996-1.613-1.78-2.782-2.353c1.034-0.552,1.846-1.282,2.437-2.193
	c0.591-0.912,0.886-1.962,0.886-3.155c0-2.137-0.726-3.824-2.176-5.061s-3.417-1.855-5.902-1.855c-2.465,0-4.42,0.618-5.871,1.855
	s-2.177,2.924-2.177,5.061c0,1.192,0.298,2.243,0.895,3.155c0.595,0.911,1.417,1.641,2.462,2.193
	c-1.237,0.584-2.192,1.383-2.867,2.395s-1.012,2.176-1.012,3.492c0,2.181,0.77,3.911,2.311,5.187s3.645,1.915,6.309,1.915
	c2.654,0,4.737-0.635,6.25-1.906C39.958,37.858,40.714,36.126,40.714,33.934z"/>
</svg>
