<?xml version="1.0" standalone="no"?>
<!DOCTYPE svg PUBLIC "-//W3C//DTD SVG 20010904//EN"
 "http://www.w3.org/TR/2001/REC-SVG-20010904/DTD/svg10.dtd">
<svg version="1.0" xmlns="http://www.w3.org/2000/svg"
 width="446.000000pt" height="448.000000pt" viewBox="0 0 446.000000 448.000000"
 preserveAspectRatio="xMidYMid meet">

<g transform="translate(0.000000,448.000000) scale(0.100000,-0.100000)"
fill="#000000" stroke="none">
<path d="M2000 4469 c-929 -95 -1706 -769 -1936 -1677 -28 -111 -64 -322 -64
-378 0 -12 98 -14 723 -14 l724 0 12 56 c18 79 90 218 154 294 100 121 261
224 419 268 88 24 308 24 398 -1 155 -41 321 -148 420 -270 61 -75 134 -215
151 -291 l12 -56 724 0 c625 0 723 2 723 14 0 56 -36 267 -64 378 -161 638
-590 1166 -1181 1458 -371 183 -803 261 -1215 219z"/>
<path d="M2109 2702 c-234 -61 -390 -300 -351 -534 44 -261 292 -443 545 -400
105 18 187 60 261 134 191 192 192 483 1 674 -124 125 -287 170 -456 126z"/>
<path d="M0 2066 c0 -56 36 -267 64 -378 176 -697 680 -1270 1346 -1531 1257
-493 2656 225 2986 1531 28 111 64 322 64 378 0 12 -98 14 -723 14 l-724 0
-12 -56 c-18 -79 -90 -218 -154 -294 -100 -121 -263 -225 -417 -267 -90 -24
-310 -25 -398 0 -157 43 -319 146 -419 267 -64 76 -136 215 -154 294 l-12 56
-724 0 c-625 0 -723 -2 -723 -14z"/>
</g>
</svg>
